HIERARCHY
ROOT Hips
{
	OFFSET 0.000000 35.082581 0.000000
	CHANNELS 6 Xposition Yposition Zposition Xrotation Yrotation Zrotation 
	JOINT Spine
	{
		OFFSET 0.000000 6.876099 0.125700
		CHANNELS 3 Xrotation Yrotation Zrotation
		JOINT Spine1
		{
			OFFSET 0.000000 5.730043 0.104720
			CHANNELS 3 Xrotation Yrotation Zrotation
			JOINT Spine1_split
			{
				OFFSET 0.000000 5.730043 0.104720
				CHANNELS 3 Xrotation Yrotation Zrotation
				JOINT Spine2
				{
					OFFSET 0.000000 5.730043 0.104720
					CHANNELS 3 Xrotation Yrotation Zrotation
					JOINT Neck
					{
						OFFSET 0.000000 10.314075 0.188496
						CHANNELS 3 Xrotation Yrotation Zrotation
						JOINT Head
						{
							OFFSET 0.000000 7.643700 -2.377400
							CHANNELS 3 Xrotation Yrotation Zrotation
							JOINT HeadTop_End
							{
								OFFSET 0.000000 43.788605 -13.619600
								CHANNELS 3 Xrotation Yrotation Zrotation
								End Site
								{
									OFFSET 0.000000 0.000000 0.000000
								}
							}
						}
					}
					JOINT LeftShoulder
					{
						OFFSET 2.196100 4.412489 0.087492
						CHANNELS 3 Xrotation Yrotation Zrotation
						JOINT LeftShoulder_split
						{
							OFFSET 2.196100 4.412489 0.087492
							CHANNELS 3 Xrotation Yrotation Zrotation
							JOINT LeftArm
							{
								OFFSET 8.771219 -2.981674 -0.026999
								CHANNELS 3 Xrotation Yrotation Zrotation
								JOINT LeftForeArm
								{
									OFFSET 8.512804 0.000000 -0.000000
									CHANNELS 3 Xrotation Yrotation Zrotation
									JOINT LeftHand
									{
										OFFSET 18.484802 0.000000 -0.000000
										CHANNELS 3 Xrotation Yrotation Zrotation
										JOINT LeftHandThumb1
										{
											OFFSET 2.499420 -1.158070 2.653252
											CHANNELS 3 Xrotation Yrotation Zrotation
											JOINT LeftHandThumb2
											{
												OFFSET 2.370079 -1.368366 1.368366
												CHANNELS 3 Xrotation Yrotation Zrotation
												JOINT LeftHandThumb3
												{
													OFFSET 2.676727 -1.545410 1.545409
													CHANNELS 3 Xrotation Yrotation Zrotation
													JOINT LeftHandThumb4
													{
														OFFSET 1.692226 -0.977005 0.977007
														CHANNELS 3 Xrotation Yrotation Zrotation
														End Site
														{
															OFFSET 0.000000 0.000000 0.000000
														}
													}
												}
											}
										}
										JOINT LeftHandIndex1
										{
											OFFSET 7.924831 -0.457527 2.345128
											CHANNELS 3 Xrotation Yrotation Zrotation
											JOINT LeftHandIndex2
											{
												OFFSET 3.643303 0.000000 0.000000
												CHANNELS 3 Xrotation Yrotation Zrotation
												JOINT LeftHandIndex3
												{
													OFFSET 3.810799 0.000000 0.000000
													CHANNELS 3 Xrotation Yrotation Zrotation
													JOINT LeftHandIndex4
													{
														OFFSET 2.403702 0.000000 0.000000
														CHANNELS 3 Xrotation Yrotation Zrotation
														End Site
														{
															OFFSET 0.000000 0.000000 0.000000
														}
													}
												}
											}
										}
										JOINT LeftHandMiddle1
										{
											OFFSET 8.563995 0.000000 -0.000000
											CHANNELS 3 Xrotation Yrotation Zrotation
											JOINT LeftHandMiddle2
											{
												OFFSET 3.861618 0.000000 0.000000
												CHANNELS 3 Xrotation Yrotation Zrotation
												JOINT LeftHandMiddle3
												{
													OFFSET 3.701603 0.000000 0.000000
													CHANNELS 3 Xrotation Yrotation Zrotation
													JOINT LeftHandMiddle4
													{
														OFFSET 2.322544 0.000000 0.000000
														CHANNELS 3 Xrotation Yrotation Zrotation
														End Site
														{
															OFFSET 0.000000 0.000000 0.000000
														}
													}
												}
											}
										}
										JOINT LeftHandRing1
										{
											OFFSET 8.426460 -0.424637 -3.286992
											CHANNELS 3 Xrotation Yrotation Zrotation
											JOINT LeftHandRing2
											{
												OFFSET 3.126408 0.000000 0.000000
												CHANNELS 3 Xrotation Yrotation Zrotation
												JOINT LeftHandRing3
												{
													OFFSET 3.085026 0.000000 0.000000
													CHANNELS 3 Xrotation Yrotation Zrotation
													JOINT LeftHandRing4
													{
														OFFSET 1.644005 0.000000 0.000000
														CHANNELS 3 Xrotation Yrotation Zrotation
														End Site
														{
															OFFSET 0.000000 0.000000 0.000000
														}
													}
												}
											}
										}
									}
								}
							}
						}
					}
					JOINT RightShoulder
					{
						OFFSET -2.196100 4.412496 0.070690
						CHANNELS 3 Xrotation Yrotation Zrotation
						JOINT RightShoulder_split
						{
							OFFSET -2.196100 4.412496 0.070690
							CHANNELS 3 Xrotation Yrotation Zrotation
							JOINT RightArm
							{
								OFFSET -8.771282 -2.981682 -0.094208
								CHANNELS 3 Xrotation Yrotation Zrotation
								JOINT RightForeArm
								{
									OFFSET -8.494598 0.000000 0.000000
									CHANNELS 3 Xrotation Yrotation Zrotation
									JOINT RightHand
									{
										OFFSET -18.483803 0.000000 0.000001
										CHANNELS 3 Xrotation Yrotation Zrotation
										JOINT RightHandThumb1
										{
											OFFSET -2.527351 -1.008072 2.575253
											CHANNELS 3 Xrotation Yrotation Zrotation
											JOINT RightHandThumb2
											{
												OFFSET -2.321518 -1.340328 1.340329
												CHANNELS 3 Xrotation Yrotation Zrotation
												JOINT RightHandThumb3
												{
													OFFSET -2.657753 -1.534454 1.534455
													CHANNELS 3 Xrotation Yrotation Zrotation
													JOINT RightHandThumb4
													{
														OFFSET -1.807510 -1.043568 1.043567
														CHANNELS 3 Xrotation Yrotation Zrotation
														End Site
														{
															OFFSET 0.000000 0.000000 0.000000
														}
													}
												}
											}
										}
										JOINT RightHandIndex1
										{
											OFFSET -8.811420 0.015533 2.887987
											CHANNELS 3 Xrotation Yrotation Zrotation
											JOINT RightHandIndex2
											{
												OFFSET -3.537502 0.000000 0.000000
												CHANNELS 3 Xrotation Yrotation Zrotation
												JOINT RightHandIndex3
												{
													OFFSET -3.356201 0.000000 0.000000
													CHANNELS 3 Xrotation Yrotation Zrotation
													JOINT RightHandIndex4
													{
														OFFSET -1.933098 0.000000 0.000000
														CHANNELS 3 Xrotation Yrotation Zrotation
														End Site
														{
															OFFSET 0.000000 0.000000 0.000000
														}
													}
												}
											}
										}
										JOINT RightHandMiddle1
										{
											OFFSET -8.178135 0.000000 0.000000
											CHANNELS 3 Xrotation Yrotation Zrotation
											JOINT RightHandMiddle2
											{
												OFFSET -3.901302 0.000000 0.000000
												CHANNELS 3 Xrotation Yrotation Zrotation
												JOINT RightHandMiddle3
												{
													OFFSET -3.909599 0.000000 0.000000
													CHANNELS 3 Xrotation Yrotation Zrotation
													JOINT RightHandMiddle4
													{
														OFFSET -2.376003 0.000000 0.000000
														CHANNELS 3 Xrotation Yrotation Zrotation
														End Site
														{
															OFFSET 0.000000 0.000000 0.000000
														}
													}
												}
											}
										}
										JOINT RightHandRing1
										{
											OFFSET -7.559013 0.014137 -2.865403
											CHANNELS 3 Xrotation Yrotation Zrotation
											JOINT RightHandRing2
											{
												OFFSET -3.449306 0.000000 0.000000
												CHANNELS 3 Xrotation Yrotation Zrotation
												JOINT RightHandRing3
												{
													OFFSET -3.362106 0.000000 0.000000
													CHANNELS 3 Xrotation Yrotation Zrotation
													JOINT RightHandRing4
													{
														OFFSET -2.076401 0.000000 0.000000
														CHANNELS 3 Xrotation Yrotation Zrotation
														End Site
														{
															OFFSET 0.000000 0.000000 0.000000
														}
													}
												}
											}
										}
									}
								}
							}
						}
					}
				}
			}
		}
	}
	JOINT LeftUpLeg
	{
		OFFSET 10.205400 -3.823500 0.155100
		CHANNELS 3 Xrotation Yrotation Zrotation
		JOINT LeftLeg
		{
			OFFSET 0.708757 -12.982077 0.567790
			CHANNELS 3 Xrotation Yrotation Zrotation
			JOINT LeftFoot
			{
				OFFSET -0.708756 -10.717838 -2.184338
				CHANNELS 3 Xrotation Yrotation Zrotation
				JOINT LeftToeBase
				{
					OFFSET 0.108149 -7.191104 7.560241
					CHANNELS 3 Xrotation Yrotation Zrotation
					JOINT LeftToe_End
					{
						OFFSET 0.070230 0.081724 4.490308
						CHANNELS 3 Xrotation Yrotation Zrotation
						End Site
						{
							OFFSET 0.000000 0.000000 0.000000
						}
					}
				}
			}
		}
	}
	JOINT RightUpLeg
	{
		OFFSET -10.205400 -3.823500 0.005500
		CHANNELS 3 Xrotation Yrotation Zrotation
		JOINT RightLeg
		{
			OFFSET -0.708756 -12.982134 0.610632
			CHANNELS 3 Xrotation Yrotation Zrotation
			JOINT RightFoot
			{
				OFFSET 0.708754 -10.717769 -1.945823
				CHANNELS 3 Xrotation Yrotation Zrotation
				JOINT RightToeBase
				{
					OFFSET -0.108140 -7.191069 7.372968
					CHANNELS 3 Xrotation Yrotation Zrotation
					JOINT RightToe_End
					{
						OFFSET -0.070227 0.081735 4.479403
						CHANNELS 3 Xrotation Yrotation Zrotation
						End Site
						{
							OFFSET 0.000000 0.000000 0.000000
						}
					}
				}
			}
		}
	}
}
MOTION
Frames: 4
Frame Time: 0.016667
-0.112290 32.510448 -1.738652 5.434428 2.760828 -1.754635 4.962766 1.385390 0.117295 9.857121 2.800250 1.722123 0.000000 0.000000 0.000000 9.857128 2.800251 1.722122 -7.496569 -3.144982 -0.434788 -14.101449 -7.360287 -5.253897 -0.000000 -0.000000 0.000000 1.084072 -1.226533 -9.108563 0.000000 0.000000 0.000000 21.951210 16.129905 -69.744612 5.201794 -103.989883 -6.123488 11.822911 -20.243286 2.841639 -3.690113 -7.086985 -6.632097 5.385699 13.659113 2.745840 -0.000006 0.000009 -0.000008 -0.000002 -0.000000 -0.000004 -4.456528 -5.493664 -78.091855 -6.126708 -4.186008 -86.100299 0.000006 0.000009 0.000008 -0.000001 -0.000000 -0.000002 -4.795475 -3.750236 -81.576938 -5.123581 -5.382082 -79.877573 0.000001 0.000003 0.000005 0.000002 -0.000000 -0.000000 -3.664382 4.578286 -85.637417 -3.073169 -4.292440 -82.602990 -0.000007 0.000006 0.000001 0.000002 -0.000002 0.000001 0.776484 6.054085 9.529750 0.000000 0.000000 0.000000 5.506744 -10.523582 55.529284 -70.896489 86.710440 75.613623 -0.541021 5.793754 2.436028 1.190238 2.334533 7.237265 4.255928 -11.098853 -2.566625 0.000002 -0.000006 -0.000022 -0.000003 -0.000000 -0.000000 3.425534 2.971821 72.847157 -5.590511 2.959992 92.129034 0.000007 0.000004 -0.000003 -0.000002 0.000001 -0.000000 -2.182844 2.038043 78.119066 -4.717957 4.324975 85.933069 -0.000000 0.000001 -0.000003 -0.000000 -0.000002 -0.000001 -3.544731 -3.138600 85.503375 -4.845213 5.681200 88.623344 -0.000005 0.000009 -0.000003 0.000001 -0.000001 -0.000001 -42.547123 11.329470 -5.738806 109.490343 19.081776 5.620239 -21.598201 -0.519594 4.660952 -0.898553 -2.887864 -6.627472 0.000002 -0.000000 0.000000 -16.583568 -5.381092 4.484956 44.896527 -0.484681 -1.622618 -25.692457 0.833198 -2.464736 -10.242421 12.978171 -1.678610 0.000000 0.000000 0.000000 
0.266850 32.887417 2.651153 3.086357 0.626371 1.007470 4.824014 1.431175 -0.114310 9.626593 3.123980 0.274439 0.000000 0.000000 0.000000 9.626598 3.123981 0.274439 -2.454928 -3.325481 -1.544304 -13.137937 -8.242273 -5.177376 0.000000 0.000000 -0.000000 1.017760 -3.352026 -7.689938 0.000000 0.000000 0.000000 20.366294 21.388592 -69.829470 3.146191 -98.519830 -7.266113 11.665507 -20.398030 3.541834 -3.674520 -7.031699 -6.573690 5.390395 13.668768 2.745656 -0.000001 0.000006 -0.000011 -0.000003 -0.000000 -0.000002 -4.415714 -5.486233 -77.672597 -6.076184 -4.184116 -85.682230 0.000007 0.000009 0.000007 0.000002 -0.000000 0.000000 -4.761757 -3.747111 -81.225067 -5.085650 -5.375452 -79.524787 0.000003 0.000002 0.000003 0.000001 -0.000002 -0.000001 -3.642429 4.581595 -85.331835 -3.053934 -4.287330 -82.294033 -0.000001 0.000009 -0.000003 0.000000 -0.000001 0.000001 0.471253 6.581712 7.077375 0.000000 0.000000 0.000000 2.677243 -8.531783 52.506342 -124.821215 83.187346 129.906318 0.046003 8.442201 -4.547152 1.063719 2.389935 7.088559 4.210542 -10.996087 -2.558756 0.000002 -0.000011 -0.000018 -0.000002 -0.000002 -0.000000 3.285701 2.958078 72.384487 -5.532245 2.967159 91.535047 0.000009 -0.000003 -0.000005 0.000002 -0.000002 -0.000000 -2.157718 2.014444 77.565377 -4.667166 4.322088 85.362215 -0.000001 0.000001 -0.000002 0.000000 0.000000 0.000000 -3.433790 -3.143516 84.861371 -4.797942 5.679354 88.073985 -0.000009 0.000003 -0.000002 -0.000001 -0.000001 -0.000001 -59.585163 6.966765 -2.872066 101.148114 16.254020 4.811080 -1.216333 -1.189068 8.636031 -3.283861 -2.438935 -5.653248 -0.000001 -0.000000 -0.000001 -7.306755 -4.692471 1.065272 48.129731 0.623438 -3.339665 -25.115377 0.124960 -0.467631 -19.655437 13.502116 0.910793 -0.000000 -0.000001 0.000000 
0.708758 32.589993 7.382275 0.108720 -1.458504 3.780628 4.733764 1.473534 -0.370005 9.488548 3.163839 -0.986325 0.000000 0.000000 0.000000 9.488545 3.163838 -0.986325 2.602475 -3.411512 -2.577497 -12.199131 -8.439067 -5.062701 -0.000000 -0.000000 -0.000000 0.950476 -5.646697 -7.066036 0.000000 0.000000 0.000000 19.644683 26.553703 -68.303415 -44.943311 -91.993345 -56.509659 12.433740 -20.263225 4.153234 -3.631291 -6.892559 -6.427418 5.402855 13.694238 2.745136 -0.000007 -0.000000 -0.000011 -0.000004 0.000000 0.000001 -4.314027 -5.463032 -76.623036 -5.949263 -4.173834 -84.635715 0.000004 0.000008 0.000005 -0.000001 0.000001 -0.000001 -4.676714 -3.733392 -80.346316 -4.991193 -5.357294 -78.643782 0.000002 -0.000001 0.000005 0.000001 0.000003 0.000000 -3.588977 4.586331 -84.569988 -3.007789 -4.280697 -81.524052 -0.000007 0.000008 0.000000 -0.000000 0.000001 -0.000001 0.215443 7.052331 4.417753 0.000000 0.000000 0.000000 -0.696323 -7.601971 49.506622 -136.724049 80.118447 141.096532 -1.682958 8.719121 -8.099250 0.735815 2.516782 6.699288 4.098475 -10.742294 -2.538917 0.000006 -0.000012 -0.000023 0.000002 0.000001 0.000002 2.946275 2.950514 71.140628 -5.372427 2.971049 89.955224 0.000012 0.000002 -0.000004 -0.000000 -0.000000 0.000000 -2.097288 1.952048 76.105390 -4.531250 4.309425 83.837553 -0.000002 0.000001 -0.000002 0.000001 -0.000000 0.000000 -3.153750 -3.176332 83.187196 -4.671681 5.673730 86.598432 -0.000006 0.000002 -0.000003 0.000000 -0.000000 -0.000000 -67.469626 3.025997 -2.562162 90.879656 15.078138 4.250340 11.369720 -0.870087 10.141727 -4.875845 -3.545070 -3.061921 -0.000002 -0.000001 0.000000 -0.333233 -4.062889 -3.906995 55.443835 1.761452 -4.407210 -16.489265 -0.550109 2.059400 -43.139475 9.846530 6.615800 -0.000001 -0.000000 -0.000000 
0.913261 31.934292 12.279622 -3.260160 -4.013478 6.093067 4.895939 1.500169 -0.835184 9.838374 3.169748 -2.175855 0.000000 0.000000 0.000000 9.838376 3.169749 -2.175855 7.329076 -3.470431 -3.521876 -11.394771 -8.119055 -4.996079 0.000000 0.000000 -0.000000 0.873600 -7.727230 -6.705425 0.000000 0.000000 0.000000 19.528667 31.328220 -66.134085 -131.666731 -98.266724 -145.356042 13.514990 -20.043424 4.561871 -3.569437 -6.695152 -6.222103 5.420894 13.731100 2.744359 -0.000006 0.000005 -0.000006 0.000001 -0.000000 -0.000002 -4.171572 -5.426555 -75.144191 -5.770817 -4.154594 -83.161030 0.000005 0.000004 0.000008 -0.000001 0.000002 -0.000003 -4.557158 -3.710888 -79.109341 -4.858688 -5.329164 -77.403638 0.000005 0.000002 0.000005 0.000001 -0.000002 -0.000000 -3.514166 4.593333 -83.498489 -2.943357 -4.271626 -80.441064 -0.000002 0.000011 -0.000005 -0.000001 -0.000001 -0.000001 -0.010815 7.405838 1.517398 0.000000 0.000000 0.000000 -3.959894 -7.479184 46.796679 -143.758325 76.454822 146.944854 -4.558741 7.638982 -9.646827 0.277062 2.694362 6.152302 3.942600 -10.389861 -2.510529 0.000005 -0.000004 -0.000013 0.000001 -0.000000 0.000003 2.483101 2.965538 69.371417 -5.146203 2.966083 87.716752 0.000010 0.000003 -0.000003 -0.000000 0.000000 0.000001 -2.014737 1.861864 74.039708 -4.339276 4.284731 81.675013 -0.000000 0.000001 -0.000005 -0.000000 0.000000 0.000002 -2.765291 -3.243719 80.825119 -4.492711 5.660391 84.502889 -0.000006 0.000003 -0.000003 -0.000000 0.000000 -0.000001 -69.699444 -0.527897 -2.493484 81.314713 15.849032 4.374227 15.798270 -0.677449 9.575363 -5.330200 -5.944672 0.652697 0.000002 0.000000 0.000001 2.028326 -0.953294 -9.435907 59.136372 3.681374 -4.630089 9.738980 0.146135 0.997748 -68.480515 1.549571 5.734256 0.000000 -0.000000 0.000000 
